<svg xmlns="http://www.w3.org/2000/svg" xmlns:xlink="http://www.w3.org/1999/xlink" width="500" zoomAndPan="magnify" viewBox="0 0 375 374.999991" height="500" preserveAspectRatio="xMidYMid meet" version="1.0"><defs><g/><clipPath id="fd76a11617"><path d="M 12 70.320312 L 182 70.320312 L 182 311.898438 L 12 311.898438 Z M 12 70.320312 " clip-rule="nonzero"/></clipPath><clipPath id="7cccfa9214"><path d="M 6.34375 63 L 221 63 L 221 311.925781 L 6.34375 311.925781 Z M 6.34375 63 " clip-rule="nonzero"/></clipPath></defs><g clip-path="url(#fd76a11617)"><path fill="#ffde59" d="M 12.1875 177.582031 C 12.449219 177.535156 12.710938 177.492188 12.976562 177.46875 C 13.457031 177.421875 13.933594 177.398438 14.410156 177.398438 C 15.363281 177.398438 16.308594 177.496094 17.234375 177.683594 L 17.234375 75.613281 L 67.125 75.613281 C 68.039062 73.8125 69.046875 72.125 70.144531 70.566406 L 12.1875 70.566406 Z M 176.613281 306.851562 L 156.894531 306.851562 L 161.773438 311.898438 L 181.65625 311.898438 L 181.65625 205.527344 L 176.613281 205.578125 Z M 17.234375 199.984375 C 16.757812 200.109375 16.265625 200.203125 15.753906 200.261719 L 15.449219 197.121094 L 15.753906 200.261719 C 15.40625 200.296875 15.0625 200.3125 14.71875 200.3125 C 13.84375 200.3125 13.003906 200.191406 12.1875 199.988281 L 12.1875 311.898438 L 65.421875 311.898438 L 67.855469 306.851562 L 17.234375 306.851562 Z M 110.296875 306.851562 L 109.75 311.898438 L 137.433594 311.898438 L 132.179688 306.851562 Z M 125.339844 70.566406 C 126.355469 71.804688 127.316406 73.144531 128.210938 74.574219 C 128.425781 74.914062 128.628906 75.265625 128.839844 75.613281 L 176.613281 75.613281 L 176.613281 112.820312 L 181.65625 113.261719 L 181.65625 70.566406 L 125.339844 70.566406 " fill-opacity="1" fill-rule="nonzero"/></g><g clip-path="url(#7cccfa9214)"><path fill="#ffde59" d="M 76.605469 248.046875 L 76.578125 248.046875 C 76.542969 248.042969 76.511719 248.042969 76.476562 248.042969 C 76.523438 248.042969 76.5625 248.042969 76.605469 248.046875 Z M 39.363281 160.644531 C 31.691406 155.40625 25.929688 143.226562 25.128906 128.546875 C 24.011719 108.128906 32.914062 90.609375 45.003906 89.40625 C 47.804688 89.128906 50.527344 89.761719 53.078125 91.136719 C 53.671875 91.535156 54.25 91.964844 54.816406 92.441406 L 65.011719 93.179688 C 64.992188 93.320312 64.972656 93.457031 64.953125 93.597656 L 56.589844 94.101562 C 56.664062 94.175781 56.734375 94.253906 56.804688 94.332031 L 64.804688 94.664062 C 64.769531 94.96875 64.734375 95.28125 64.699219 95.585938 L 58.507812 96.328125 C 58.542969 96.375 58.574219 96.414062 58.609375 96.457031 L 64.582031 96.707031 C 64.519531 97.382812 64.46875 98.0625 64.425781 98.75 L 60.632812 99.425781 C 60.714844 99.558594 60.796875 99.691406 60.871094 99.824219 L 64.367188 99.921875 C 64.316406 101.046875 64.292969 102.1875 64.296875 103.339844 L 62.875 103.699219 C 62.925781 103.8125 62.980469 103.917969 63.027344 104.03125 L 64.304688 104.101562 C 64.316406 105.03125 64.34375 105.964844 64.394531 106.902344 C 64.722656 112.902344 65.792969 118.53125 67.433594 123.539062 C 68.265625 139.957031 62.628906 154.457031 54.078125 160.046875 L 61.605469 157.097656 C 66.945312 152.167969 70.46875 142.683594 70.542969 131.84375 C 72.214844 135.339844 77.335938 144.621094 85.667969 147.660156 L 88.773438 146.445312 C 86.199219 145.855469 84.636719 145.1875 82.96875 144.332031 C 82.324219 143.984375 81.691406 143.585938 81.070312 143.167969 C 72.953125 136.976562 66.9375 123.753906 66.070312 107.921875 C 64.824219 85.074219 74.785156 65.464844 88.316406 64.121094 C 91.453125 63.808594 94.5 64.523438 97.355469 66.058594 C 98.015625 66.507812 98.664062 66.984375 99.300781 67.519531 L 114.183594 68.597656 L 101.285156 69.378906 C 101.367188 69.460938 101.441406 69.546875 101.519531 69.632812 L 116.777344 70.269531 L 103.429688 71.871094 C 103.464844 71.917969 103.503906 71.96875 103.539062 72.015625 L 120.453125 72.71875 L 105.804688 75.332031 C 105.898438 75.484375 105.988281 75.632812 106.074219 75.78125 L 123.59375 76.257812 L 108.316406 80.117188 C 108.371094 80.242188 108.433594 80.363281 108.488281 80.488281 L 126.832031 81.570312 L 110.5625 86.035156 C 110.644531 86.285156 110.722656 86.535156 110.796875 86.789062 L 127.75 87.550781 L 111.773438 90.445312 C 111.8125 90.613281 111.847656 90.785156 111.890625 90.953125 L 127.835938 91.84375 L 112.378906 93.375 C 112.890625 96.152344 113.246094 99.046875 113.40625 102.042969 C 114.65625 124.890625 104.695312 144.503906 91.160156 145.84375 C 93.980469 145.566406 106.945312 147.242188 111.269531 146.8125 C 124.71875 145.480469 134.621094 125.984375 133.378906 103.273438 C 132.214844 81.980469 121.675781 65.421875 109.273438 64.53125 C 108.460938 64.472656 93.109375 63.308594 89.15625 63.066406 C 89.179688 63.070312 89.203125 63.074219 89.230469 63.074219 C 88.375 63.011719 87.511719 63.015625 86.636719 63.101562 C 76.613281 64.097656 68.554688 75.117188 65.558594 90.050781 C 64.953125 89.917969 64.347656 89.816406 63.730469 89.773438 C 63.003906 89.71875 49.289062 88.683594 45.753906 88.464844 C 45.800781 88.46875 45.851562 88.476562 45.898438 88.480469 C 45.628906 88.457031 45.367188 88.449219 45.097656 88.445312 C 45.316406 88.445312 45.535156 88.449219 45.753906 88.460938 C 45.695312 88.460938 45.632812 88.457031 45.582031 88.453125 C 45.410156 88.441406 45.238281 88.445312 45.0625 88.445312 C 44.546875 88.433594 44.027344 88.445312 43.503906 88.496094 C 31.414062 89.695312 22.511719 107.21875 23.628906 127.632812 C 24.480469 143.257812 30.953125 156.035156 39.363281 160.644531 Z M 85.3125 87.90625 C 85.363281 87.914062 85.414062 87.925781 85.449219 87.933594 C 85.472656 87.9375 85.492188 87.949219 85.511719 87.953125 C 85.449219 87.9375 85.382812 87.921875 85.3125 87.90625 Z M 81.0625 93.710938 C 81.078125 93.714844 81.089844 93.722656 81.101562 93.726562 C 81.058594 93.714844 81.015625 93.703125 80.964844 93.691406 C 81 93.699219 81.039062 93.703125 81.0625 93.710938 Z M 88.773438 123.011719 C 94.542969 122.441406 98.789062 114.078125 98.257812 104.335938 C 97.761719 95.203125 93.238281 88.101562 87.917969 87.71875 C 87.570312 87.695312 84.773438 87.578125 83.402344 87.742188 C 83.417969 87.746094 83.449219 87.746094 83.46875 87.75 C 83.386719 87.753906 83.304688 87.75 83.226562 87.761719 C 79.3125 88.148438 76.097656 92.109375 74.585938 97.652344 C 73.363281 100.019531 72.699219 103.207031 72.886719 106.644531 C 73.074219 110.09375 74.089844 113.125 75.5625 115.222656 C 76.929688 118.578125 78.929688 121.128906 81.238281 122.394531 C 79.4375 121.164062 77.859375 119.125 76.671875 116.546875 C 77.128906 117 77.621094 117.371094 78.132812 117.652344 C 75.578125 115.90625 73.652344 111.847656 73.386719 106.949219 C 73.015625 100.140625 75.984375 94.292969 80.015625 93.894531 C 80.945312 93.804688 81.847656 94.015625 82.695312 94.46875 C 85.277344 96.199219 87.222656 100.269531 87.492188 105.195312 C 87.863281 112.007812 84.898438 117.851562 80.863281 118.25 C 81.703125 118.167969 82.082031 118.210938 83.371094 118.085938 C 87.378906 117.6875 90.332031 111.878906 89.960938 105.109375 C 89.613281 98.761719 86.46875 93.828125 82.777344 93.5625 C 82.535156 93.542969 80.589844 93.464844 79.636719 93.582031 C 79.648438 93.582031 79.667969 93.582031 79.6875 93.585938 C 79.628906 93.585938 79.570312 93.585938 79.515625 93.59375 C 78.324219 93.710938 77.226562 94.304688 76.28125 95.257812 C 78 91.238281 80.734375 88.515625 83.945312 88.199219 C 85.277344 88.066406 86.566406 88.363281 87.785156 89.011719 C 91.507812 91.492188 94.320312 97.359375 94.703125 104.464844 C 95.246094 114.265625 90.96875 122.675781 85.164062 123.25 C 86.375 123.132812 86.917969 123.195312 88.773438 123.011719 Z M 85.300781 121.585938 C 85.328125 121.582031 85.359375 121.582031 85.386719 121.578125 C 90.570312 121.066406 94.371094 113.332031 93.878906 104.304688 C 93.386719 95.28125 88.78125 88.378906 83.601562 88.894531 C 82.085938 89.042969 80.691406 89.8125 79.484375 91.046875 C 80.589844 90.039062 81.839844 89.410156 83.183594 89.277344 C 88.3125 88.769531 92.867188 95.597656 93.359375 104.53125 C 93.835938 113.265625 90.253906 120.769531 85.300781 121.585938 Z M 168.5625 161.878906 L 210.738281 139.828125 L 167.871094 156.714844 L 208.566406 134.269531 L 164.585938 154.515625 L 211.785156 126.792969 C 212.691406 128.320312 213.296875 130.003906 213.46875 131.753906 L 215.5 152.234375 Z M 168.847656 200.445312 C 162.847656 199.925781 157.457031 194.671875 156.875 188.777344 L 150.683594 126.304688 C 150.101562 120.40625 154.535156 116.007812 160.535156 116.53125 L 201.492188 120.085938 C 201.851562 120.113281 202.207031 120.164062 202.5625 120.230469 C 202.710938 120.253906 202.851562 120.292969 202.992188 120.328125 C 203.195312 120.371094 203.402344 120.414062 203.601562 120.46875 C 203.792969 120.519531 203.976562 120.582031 204.160156 120.644531 C 204.308594 120.695312 204.457031 120.738281 204.609375 120.792969 C 204.820312 120.871094 205.03125 120.960938 205.242188 121.050781 C 205.351562 121.097656 205.460938 121.144531 205.570312 121.191406 C 205.804688 121.300781 206.035156 121.417969 206.265625 121.539062 C 206.339844 121.582031 206.414062 121.617188 206.488281 121.660156 C 206.738281 121.800781 206.988281 121.945312 207.226562 122.101562 C 207.273438 122.132812 207.320312 122.160156 207.363281 122.191406 C 207.625 122.359375 207.878906 122.539062 208.125 122.730469 C 208.148438 122.742188 208.167969 122.757812 208.1875 122.773438 C 208.453125 122.976562 208.707031 123.1875 208.960938 123.40625 C 207.214844 122.28125 205.238281 121.535156 203.179688 121.359375 L 162.222656 117.804688 C 156.222656 117.28125 151.785156 121.679688 152.371094 127.578125 L 155.023438 154.320312 L 158.375 154.613281 C 160.882812 154.832031 163.136719 157.023438 163.378906 159.488281 L 165.800781 183.933594 C 165.894531 184.867188 165.683594 185.703125 165.257812 186.382812 C 172.417969 188.660156 200.039062 197.445312 208.410156 200.070312 Z M 144.410156 188.257812 C 139.082031 185.804688 139.601562 180.851562 139.601562 180.851562 C 139.601562 180.851562 137.214844 156.765625 136.851562 153.078125 C 136.621094 150.804688 137.300781 148.613281 137.855469 147.265625 L 142.492188 182.5 L 138.980469 144.988281 L 140.476562 142.125 L 146.011719 184.21875 L 141.832031 139.535156 L 144.34375 134.738281 L 151.386719 188.304688 L 146.070312 131.441406 L 149.101562 125.644531 L 155.503906 190.261719 C 155.621094 191.488281 155.949219 192.683594 156.429688 193.820312 C 153.429688 192.429688 148.09375 189.953125 144.410156 188.257812 Z M 126.066406 197.84375 C 123.910156 197.835938 121.804688 197.316406 119.824219 196.390625 C 121.589844 197.136719 123.449219 197.550781 125.34375 197.558594 C 132.398438 197.59375 137.871094 192.054688 139.425781 184.265625 C 139.628906 184.933594 139.867188 185.5 140.113281 185.96875 C 138.074219 193.019531 132.765625 197.875 126.066406 197.84375 Z M 135.96875 227.910156 L 137.445312 230.203125 C 137.300781 230.292969 137.140625 230.351562 136.960938 230.351562 C 136.335938 230.347656 135.773438 229.714844 135.699219 228.941406 C 135.660156 228.53125 135.765625 228.164062 135.96875 227.910156 Z M 136.6875 227.542969 C 137.3125 227.542969 137.878906 228.175781 137.949219 228.949219 C 137.984375 229.277344 137.917969 229.574219 137.789062 229.808594 L 136.371094 227.609375 C 136.472656 227.570312 136.574219 227.539062 136.6875 227.542969 Z M 129.449219 213.011719 C 128.347656 214.847656 123.023438 223.628906 123.023438 223.628906 C 123.023438 223.628906 122.34375 224.960938 121.59375 225.054688 C 120.839844 225.152344 119.601562 223.875 119.601562 223.875 C 119.601562 223.875 113.757812 216.957031 110.140625 212.835938 C 106.527344 208.714844 111.4375 209.65625 111.4375 209.65625 L 128.125 210.363281 C 128.125 210.363281 131.128906 210.21875 129.449219 213.011719 Z M 105.371094 231.363281 L 103.769531 228.886719 C 103.886719 228.84375 104.003906 228.808594 104.132812 228.808594 C 104.832031 228.8125 105.46875 229.523438 105.550781 230.394531 C 105.585938 230.761719 105.515625 231.097656 105.371094 231.363281 Z M 104.4375 231.96875 C 103.738281 231.964844 103.101562 231.257812 103.019531 230.386719 C 102.976562 229.921875 103.097656 229.511719 103.320312 229.222656 L 104.980469 231.800781 C 104.824219 231.90625 104.640625 231.972656 104.4375 231.96875 Z M 96.753906 178.484375 C 95.648438 167.027344 101.285156 157.507812 109.765625 155.425781 C 109.988281 155.375 110.429688 155.269531 111.011719 155.140625 C 104.917969 159.417969 101.304688 167.5625 102.203125 176.902344 C 103.402344 189.378906 112.234375 199.699219 122.640625 201.5 C 121.59375 201.71875 120.675781 201.894531 120.152344 201.972656 C 119.421875 202.082031 118.671875 202.136719 117.90625 202.132812 C 107.480469 202.085938 98.007812 191.5 96.753906 178.484375 Z M 94.738281 150.238281 C 94.695312 149.777344 94.816406 149.367188 95.042969 149.082031 L 96.703125 151.65625 C 96.542969 151.761719 96.359375 151.824219 96.15625 151.824219 C 95.457031 151.824219 94.824219 151.113281 94.738281 150.238281 Z M 95.851562 148.667969 C 96.550781 148.671875 97.1875 149.378906 97.269531 150.25 C 97.304688 150.617188 97.234375 150.953125 97.09375 151.21875 L 95.488281 148.742188 C 95.605469 148.695312 95.722656 148.667969 95.851562 148.667969 Z M 119.863281 153.355469 C 120.117188 153.324219 120.375 153.300781 120.632812 153.285156 C 110.808594 153.976562 103.945312 164.1875 105.152344 176.722656 C 106.40625 189.734375 115.878906 200.324219 126.304688 200.371094 C 127.261719 200.375 128.195312 200.285156 129.097656 200.117188 C 129.042969 200.125 128.992188 200.140625 128.9375 200.148438 C 128.410156 200.242188 125.855469 200.816406 123.5625 201.304688 C 113.128906 199.621094 104.242188 189.316406 103.042969 176.832031 C 102.121094 167.285156 105.949219 158.992188 112.324219 154.847656 C 114.90625 154.28125 118.582031 153.511719 119.863281 153.355469 Z M 117.269531 184.25 C 116.777344 180.914062 117.808594 178.007812 119.742188 176.433594 C 120.046875 176.335938 120.371094 176.234375 120.699219 176.132812 C 118.710938 177.796875 117.5625 180.617188 117.875 183.816406 C 118.332031 188.609375 121.886719 192.535156 125.984375 192.96875 C 125.660156 193.070312 125.328125 193.179688 124.996094 193.285156 C 121.296875 192.695312 117.941406 188.875 117.269531 184.25 Z M 117.644531 177.082031 C 117.679688 177.074219 117.746094 177.054688 117.832031 177.03125 C 115.890625 178.605469 114.859375 181.515625 115.347656 184.851562 C 116.023438 189.476562 119.375 193.296875 123.070312 193.890625 C 122.285156 194.136719 121.679688 194.3125 121.5 194.339844 C 121.230469 194.378906 120.949219 194.398438 120.667969 194.394531 C 116.800781 194.378906 113.289062 190.453125 112.828125 185.628906 C 112.414062 181.382812 114.503906 177.855469 117.644531 177.082031 Z M 112.246094 167.390625 C 112.773438 171.003906 115.394531 173.996094 118.285156 174.457031 C 117.671875 174.648438 117.199219 174.789062 117.054688 174.808594 C 116.84375 174.839844 116.625 174.855469 116.402344 174.851562 C 113.382812 174.839844 110.632812 171.769531 110.273438 167.996094 C 109.953125 164.675781 111.585938 161.917969 114.042969 161.316406 C 114.070312 161.308594 114.117188 161.292969 114.1875 161.273438 C 112.667969 162.503906 111.863281 164.78125 112.246094 167.390625 Z M 126.628906 166.363281 C 126.824219 168.378906 126.289062 170.183594 125.296875 171.429688 C 125.3125 171.898438 125.351562 172.375 125.421875 172.867188 C 125.511719 173.464844 125.644531 174.046875 125.808594 174.617188 C 125.539062 174.585938 125.265625 174.566406 124.992188 174.566406 C 124.238281 174.570312 123.53125 174.699219 122.863281 174.925781 C 122.78125 174.527344 122.707031 174.125 122.667969 173.710938 C 122.648438 173.5 122.640625 173.296875 122.632812 173.089844 C 122.609375 173.09375 122.597656 173.101562 122.574219 173.101562 C 122.445312 173.125 121.113281 173.5625 119.789062 173.984375 C 116.894531 173.519531 114.273438 170.53125 113.746094 166.914062 C 113.363281 164.308594 114.167969 162.035156 115.683594 160.808594 C 117.304688 160.296875 119.585938 159.585938 119.945312 159.539062 C 120.125 159.515625 120.308594 159.503906 120.496094 159.507812 C 123.148438 159.515625 125.589844 161.886719 126.390625 165.015625 C 126.875 164.738281 127.386719 164.523438 127.929688 164.386719 C 127.960938 164.378906 128.035156 164.359375 128.128906 164.328125 C 127.535156 164.8125 127.019531 165.417969 126.59375 166.109375 C 126.605469 166.195312 126.617188 166.277344 126.628906 166.363281 Z M 134.164062 161.597656 C 133.722656 162.484375 133.355469 163.441406 133.089844 164.464844 C 131.546875 166.023438 130.679688 168.527344 130.953125 171.363281 C 131.277344 174.707031 133.085938 177.601562 135.453125 179.039062 C 136.035156 179.96875 136.6875 180.824219 137.398438 181.59375 C 136.933594 181.742188 136.441406 181.902344 135.945312 182.0625 C 135.003906 181.910156 134.085938 181.5625 133.21875 181.0625 C 133.390625 181.582031 133.527344 182.117188 133.625 182.675781 C 133.699219 182.6875 133.769531 182.710938 133.847656 182.722656 C 133.777344 182.746094 133.710938 182.765625 133.640625 182.785156 C 133.683594 183.035156 133.722656 183.28125 133.746094 183.535156 C 134.167969 187.945312 131.90625 191.578125 128.558594 192.160156 C 128.4375 192.179688 127.449219 192.5 126.25 192.882812 C 122.175781 192.453125 118.644531 188.554688 118.1875 183.789062 C 117.699219 178.730469 120.867188 174.613281 125.261719 174.597656 C 125.445312 174.597656 125.628906 174.613281 125.808594 174.625 C 125.828125 174.675781 125.835938 174.726562 125.851562 174.773438 C 125.867188 174.773438 125.882812 174.769531 125.902344 174.769531 C 126.757812 174.773438 127.597656 174.980469 128.390625 175.335938 C 127.976562 174.347656 127.675781 173.296875 127.515625 172.203125 C 126.984375 168.5625 128.105469 165.394531 130.214844 163.679688 C 131.242188 163.355469 132.453125 162.976562 133.523438 162.648438 C 130.207031 158.972656 125.910156 156.683594 121.40625 156.664062 C 115.496094 156.636719 110.691406 160.523438 108.371094 166.371094 C 110.65625 160.015625 115.726562 155.742188 122.011719 155.769531 C 126.507812 155.789062 130.796875 158.003906 134.164062 161.597656 Z M 128.496094 150.746094 L 129.972656 153.039062 C 129.828125 153.132812 129.667969 153.1875 129.484375 153.1875 C 128.863281 153.1875 128.300781 152.554688 128.226562 151.78125 C 128.1875 151.367188 128.292969 151.003906 128.496094 150.746094 Z M 129.214844 150.378906 C 129.835938 150.378906 130.402344 151.015625 130.476562 151.789062 C 130.507812 152.117188 130.441406 152.410156 130.316406 152.648438 L 128.894531 150.445312 C 128.992188 150.40625 129.101562 150.378906 129.214844 150.378906 Z M 135.605469 162.039062 C 135.875 161.96875 136.066406 161.921875 136.160156 161.910156 C 136.414062 161.878906 136.671875 161.863281 136.933594 161.867188 C 136.941406 161.867188 136.945312 161.867188 136.953125 161.867188 L 137.042969 162.765625 C 136.121094 164.96875 135.710938 167.585938 135.980469 170.398438 C 136.253906 173.253906 137.1875 175.914062 138.566406 178.144531 L 138.863281 181.125 C 138.863281 181.125 138.859375 181.125 138.859375 181.128906 C 136.445312 178.375 134.757812 174.617188 134.355469 170.476562 C 134.054688 167.347656 134.542969 164.449219 135.605469 162.039062 Z M 136.765625 159.953125 L 136.921875 161.582031 C 136.707031 161.300781 136.488281 161.023438 136.261719 160.753906 C 136.417969 160.476562 136.585938 160.210938 136.765625 159.953125 Z M 220.941406 191.847656 L 214.859375 130.457031 C 214.246094 124.273438 208.59375 118.769531 202.300781 118.21875 L 159.34375 114.492188 C 154.097656 114.035156 150.011719 117.167969 149.140625 121.796875 C 147.566406 124.972656 144.300781 131.53125 141.597656 137.011719 L 141.59375 136.957031 L 141.433594 137.347656 C 140 140.246094 138.738281 142.8125 137.992188 144.359375 C 135.300781 149.941406 135.976562 152 135.976562 152 C 135.976562 152 136.234375 154.59375 136.59375 158.265625 C 136.136719 158.703125 135.714844 159.1875 135.324219 159.707031 C 134.214844 158.53125 133.007812 157.488281 131.734375 156.601562 C 131.816406 156.65625 131.894531 156.703125 131.96875 156.757812 L 131.214844 149.128906 L 92.589844 146.558594 L 101.210938 233.625 L 139.378906 231.507812 L 135.941406 196.855469 C 135.914062 196.875 135.886719 196.898438 135.863281 196.921875 C 138.484375 194.746094 140.527344 191.664062 141.753906 187.996094 C 141.894531 188.097656 141.976562 188.144531 141.976562 188.144531 L 159.535156 198.371094 C 161.828125 200.65625 164.859375 202.222656 168.0625 202.5 L 210.609375 202.097656 C 216.90625 202.644531 221.554688 198.03125 220.941406 191.847656 Z M 43.601562 226.835938 C 43.597656 226.832031 43.59375 226.832031 43.589844 226.832031 C 43.582031 226.828125 43.574219 226.828125 43.5625 226.824219 C 43.574219 226.828125 43.585938 226.832031 43.601562 226.835938 Z M 81.0625 93.503906 C 81.046875 93.5 81.023438 93.5 81.003906 93.5 C 80.945312 93.496094 80.875 93.496094 80.8125 93.496094 C 80.894531 93.496094 80.980469 93.496094 81.0625 93.503906 Z M 77.765625 254.140625 C 77.675781 252.457031 76.792969 251.175781 75.800781 251.273438 C 75.511719 251.304688 75.242188 251.449219 75.011719 251.679688 L 76.914062 256.960938 C 77.480469 256.40625 77.832031 255.335938 77.765625 254.140625 Z M 74.164062 254.5 C 74.257812 256.179688 75.136719 257.464844 76.132812 257.367188 C 76.292969 257.347656 76.449219 257.292969 76.589844 257.210938 L 74.726562 252.035156 C 74.335938 252.632812 74.109375 253.523438 74.164062 254.5 Z M 46.355469 239.902344 C 46.375 239.898438 46.398438 239.898438 46.414062 239.898438 C 49.65625 239.574219 52.035156 234.734375 51.726562 229.085938 C 51.417969 223.433594 48.539062 219.117188 45.296875 219.4375 C 44.347656 219.53125 43.472656 220.015625 42.71875 220.789062 C 43.410156 220.15625 44.191406 219.765625 45.035156 219.679688 C 48.246094 219.363281 51.097656 223.636719 51.402344 229.230469 C 51.703125 234.691406 49.457031 239.394531 46.355469 239.902344 Z M 43.058594 228.972656 C 43.054688 228.96875 43.054688 228.96875 43.054688 228.96875 C 43.046875 228.96875 43.042969 228.964844 43.042969 228.964844 C 43.042969 228.964844 43.050781 228.96875 43.058594 228.972656 Z M 43.523438 226.773438 C 43.542969 226.773438 43.570312 226.773438 43.589844 226.777344 C 43.582031 226.777344 43.578125 226.773438 43.578125 226.773438 C 43.558594 226.773438 43.539062 226.773438 43.523438 226.773438 Z M 45 225.109375 L 44.976562 225.105469 C 44.953125 225.105469 44.925781 225.105469 44.902344 225.105469 C 44.933594 225.105469 44.96875 225.105469 45 225.109375 Z M 44.753906 225.300781 C 44.761719 225.304688 44.769531 225.304688 44.777344 225.308594 C 44.734375 225.292969 44.6875 225.289062 44.640625 225.28125 C 44.6875 225.285156 44.726562 225.292969 44.753906 225.300781 Z M 41.632812 230.238281 C 41.738281 232.226562 42.566406 233.855469 43.632812 234.441406 C 42.660156 233.773438 41.921875 232.222656 41.820312 230.351562 C 41.679688 227.753906 42.816406 225.519531 44.355469 225.371094 C 44.710938 225.332031 45.058594 225.414062 45.382812 225.589844 C 46.367188 226.253906 47.105469 227.804688 47.210938 229.683594 C 47.347656 232.285156 46.214844 234.515625 44.679688 234.667969 C 44.996094 234.636719 45.144531 234.652344 45.636719 234.605469 C 47.167969 234.453125 48.296875 232.234375 48.152344 229.652344 C 48.019531 227.226562 46.816406 225.34375 45.410156 225.242188 C 45.3125 225.234375 44.570312 225.207031 44.210938 225.25 C 44.222656 225.25 44.253906 225.25 44.277344 225.253906 C 44.238281 225.253906 44.199219 225.25 44.164062 225.253906 C 42.625 225.40625 41.492188 227.636719 41.632812 230.238281 Z M 46.851562 229.703125 C 46.976562 232.019531 46.027344 234.011719 44.710938 234.226562 C 44.722656 234.226562 44.726562 234.226562 44.734375 234.222656 C 46.113281 234.085938 47.117188 232.039062 46.992188 229.644531 C 46.859375 227.246094 45.636719 225.417969 44.261719 225.554688 C 43.859375 225.59375 43.492188 225.796875 43.171875 226.125 C 43.464844 225.859375 43.796875 225.691406 44.152344 225.65625 C 45.515625 225.519531 46.71875 227.332031 46.851562 229.703125 Z M 126.339844 189.558594 C 123.910156 189.546875 121.699219 187.078125 121.40625 184.039062 C 121.113281 181.003906 122.847656 178.546875 125.28125 178.558594 C 127.714844 178.570312 129.929688 181.042969 130.21875 184.078125 C 130.511719 187.113281 128.777344 189.570312 126.339844 189.558594 Z M 125.984375 175.617188 C 122.492188 175.601562 120 179.121094 120.421875 183.476562 C 120.839844 187.835938 124.011719 191.378906 127.5 191.394531 C 130.992188 191.410156 133.484375 187.886719 133.066406 183.53125 C 132.644531 179.175781 129.472656 175.632812 125.984375 175.617188 Z M 65.933594 123.4375 C 64.898438 104.410156 55.195312 89.859375 44.265625 90.945312 C 41.070312 91.257812 38.132812 92.882812 35.589844 95.488281 C 37.917969 93.359375 40.550781 92.035156 43.390625 91.753906 C 54.210938 90.679688 63.8125 105.082031 64.84375 123.921875 C 65.847656 142.332031 58.289062 158.152344 47.851562 159.871094 C 47.910156 159.863281 47.972656 159.863281 48.035156 159.859375 C 58.964844 158.773438 66.976562 142.46875 65.933594 123.4375 Z M 78.996094 101.757812 C 79.007812 101.761719 79.023438 101.761719 79.03125 101.765625 C 79.035156 101.765625 79.039062 101.769531 79.039062 101.769531 C 79.03125 101.765625 79.011719 101.761719 78.996094 101.757812 Z M 78.964844 110.464844 C 79.261719 110.433594 79.390625 110.449219 79.847656 110.40625 C 81.269531 110.265625 82.316406 108.203125 82.183594 105.804688 C 82.0625 103.554688 80.949219 101.804688 79.640625 101.714844 C 79.554688 101.703125 78.859375 101.679688 78.527344 101.71875 C 78.527344 101.71875 78.539062 101.71875 78.542969 101.71875 C 78.519531 101.71875 78.503906 101.71875 78.484375 101.722656 C 77.054688 101.863281 76 103.9375 76.132812 106.347656 C 76.234375 108.195312 77 109.707031 77.992188 110.253906 C 77.085938 109.632812 76.402344 108.191406 76.308594 106.457031 C 76.179688 104.042969 77.230469 101.972656 78.660156 101.832031 C 78.988281 101.796875 79.3125 101.871094 79.609375 102.03125 C 80.527344 102.644531 81.214844 104.089844 81.3125 105.835938 C 81.441406 108.25 80.390625 110.320312 78.964844 110.464844 Z M 42.949219 110.03125 C 43.058594 110.03125 43.164062 110.03125 43.273438 110.042969 C 43.246094 110.039062 43.222656 110.035156 43.203125 110.035156 C 43.117188 110.03125 43.03125 110.03125 42.949219 110.03125 Z M 120.84375 171.070312 C 118.9375 171.058594 117.210938 169.128906 116.984375 166.753906 C 116.753906 164.382812 118.113281 162.464844 120.011719 162.472656 C 121.914062 162.480469 123.644531 164.410156 123.875 166.785156 C 124.101562 169.160156 122.742188 171.078125 120.84375 171.070312 Z M 120.5625 160.167969 C 117.832031 160.15625 115.882812 162.90625 116.210938 166.316406 C 116.539062 169.722656 119.015625 172.492188 121.75 172.503906 C 124.480469 172.515625 126.425781 169.765625 126.097656 166.359375 C 125.769531 162.953125 123.289062 160.179688 120.5625 160.167969 Z M 125.625 213.011719 L 113.867188 212.515625 C 113.867188 212.515625 110.410156 211.851562 112.953125 214.757812 C 115.503906 217.660156 119.621094 222.53125 119.621094 222.53125 C 119.621094 222.53125 120.492188 223.429688 121.019531 223.363281 C 121.550781 223.296875 122.03125 222.355469 122.03125 222.355469 C 122.03125 222.355469 125.78125 216.171875 126.554688 214.878906 C 127.738281 212.910156 125.625 213.011719 125.625 213.011719 Z M 155.800781 162.214844 L 157.433594 178.691406 C 158.527344 176.382812 159.03125 173.554688 158.738281 170.503906 C 158.4375 167.410156 157.371094 164.546875 155.800781 162.214844 Z M 36.507812 131.03125 C 36.773438 131.003906 36.890625 131.019531 37.296875 130.980469 C 38.550781 130.855469 39.476562 129.035156 39.359375 126.914062 C 39.253906 124.925781 38.265625 123.378906 37.109375 123.292969 C 37.03125 123.289062 36.421875 123.265625 36.125 123.300781 C 36.125 123.300781 36.136719 123.300781 36.140625 123.300781 C 36.125 123.300781 36.105469 123.300781 36.085938 123.300781 C 34.824219 123.429688 33.890625 125.261719 34.007812 127.394531 C 34.097656 129.027344 34.773438 130.363281 35.652344 130.84375 C 34.851562 130.296875 34.25 129.027344 34.164062 127.492188 C 34.050781 125.355469 34.980469 123.523438 36.246094 123.398438 C 36.535156 123.371094 36.820312 123.4375 37.085938 123.578125 C 37.890625 124.121094 38.503906 125.398438 38.585938 126.941406 C 38.703125 129.074219 37.773438 130.90625 36.507812 131.03125 Z M 89.121094 64.640625 C 88.902344 64.628906 88.683594 64.632812 88.464844 64.628906 C 88.75 64.632812 89.03125 64.632812 89.316406 64.652344 C 89.25 64.648438 89.175781 64.644531 89.121094 64.640625 Z M 77.78125 70.925781 C 80.390625 68.546875 83.335938 67.0625 86.511719 66.75 C 98.617188 65.546875 109.363281 81.664062 110.515625 102.746094 C 111.640625 123.347656 103.183594 141.058594 91.5 142.976562 C 91.570312 142.96875 91.640625 142.972656 91.707031 142.964844 C 103.9375 141.753906 112.90625 123.503906 111.742188 102.207031 C 110.578125 80.910156 99.722656 64.628906 87.492188 65.84375 C 83.917969 66.195312 80.628906 68.015625 77.78125 70.925781 Z M 86.378906 87.214844 C 86.351562 87.210938 86.320312 87.210938 86.296875 87.207031 C 86.203125 87.203125 86.109375 87.203125 86.015625 87.203125 C 86.132812 87.203125 86.257812 87.203125 86.378906 87.214844 Z M 42.3125 110.65625 C 42.359375 110.667969 42.40625 110.675781 42.441406 110.679688 C 42.464844 110.691406 42.480469 110.695312 42.503906 110.703125 C 42.441406 110.6875 42.378906 110.675781 42.3125 110.65625 Z M 38.519531 115.847656 C 38.535156 115.851562 38.542969 115.855469 38.5625 115.859375 C 38.515625 115.847656 38.476562 115.839844 38.4375 115.828125 C 38.46875 115.835938 38.5 115.839844 38.519531 115.847656 Z M 45.414062 142.027344 C 50.566406 141.515625 54.363281 134.042969 53.890625 125.339844 C 53.441406 117.179688 49.398438 110.832031 44.648438 110.492188 C 44.335938 110.46875 41.839844 110.367188 40.613281 110.511719 C 40.625 110.511719 40.65625 110.515625 40.675781 110.519531 C 40.601562 110.523438 40.527344 110.523438 40.453125 110.527344 C 36.953125 110.878906 34.082031 114.417969 32.726562 119.378906 C 31.640625 121.496094 31.046875 124.335938 31.214844 127.40625 C 31.382812 130.488281 32.289062 133.191406 33.609375 135.074219 C 34.832031 138.066406 36.617188 140.34375 38.679688 141.472656 C 37.066406 140.375 35.664062 138.554688 34.601562 136.257812 C 35.011719 136.660156 35.449219 136.992188 35.90625 137.238281 C 35.367188 136.875 34.863281 136.386719 34.398438 135.808594 C 34.367188 135.734375 34.335938 135.667969 34.300781 135.59375 C 34.042969 135.289062 33.800781 134.945312 33.566406 134.582031 C 32.515625 132.765625 31.808594 130.359375 31.664062 127.675781 C 31.332031 121.589844 33.984375 116.371094 37.585938 116.011719 C 38.417969 115.925781 39.226562 116.117188 39.984375 116.523438 C 42.289062 118.070312 44.027344 121.707031 44.269531 126.109375 C 44.601562 132.191406 41.949219 137.417969 38.34375 137.773438 C 39.09375 137.699219 39.433594 137.738281 40.585938 137.625 C 44.167969 137.269531 46.804688 132.078125 46.472656 126.03125 C 46.160156 120.359375 43.355469 115.949219 40.054688 115.714844 C 39.835938 115.699219 38.101562 115.628906 37.25 115.726562 C 37.257812 115.730469 37.277344 115.730469 37.292969 115.730469 C 37.242188 115.734375 37.191406 115.734375 37.140625 115.738281 C 36.070312 115.847656 35.089844 116.386719 34.242188 117.246094 C 35.777344 113.640625 38.222656 111.207031 41.097656 110.917969 C 42.289062 110.804688 43.445312 111.070312 44.53125 111.644531 C 47.855469 113.867188 50.367188 119.109375 50.714844 125.453125 C 51.191406 134.210938 47.371094 141.726562 42.1875 142.242188 C 43.269531 142.136719 43.753906 142.191406 45.414062 142.027344 Z M 74.949219 143.625 L 78.03125 147.210938 C 78.03125 147.210938 78.929688 148.105469 77.675781 148.648438 C 76.414062 149.1875 72.636719 150.789062 72.636719 150.789062 C 72.636719 150.789062 71.558594 151.257812 72.105469 149.628906 C 72.652344 148.003906 74.011719 143.945312 74.011719 143.945312 C 74.011719 143.945312 74.160156 142.773438 74.949219 143.625 Z M 72.164062 141.824219 C 72.164062 141.824219 70.152344 148.265625 69.257812 150.929688 C 68.363281 153.589844 70.125 152.824219 70.125 152.824219 C 70.125 152.824219 76.308594 150.199219 78.371094 149.320312 C 80.429688 148.4375 78.957031 146.96875 78.957031 146.96875 L 73.914062 141.105469 C 72.613281 139.707031 72.164062 141.824219 72.164062 141.824219 Z M 42.308594 140.753906 C 42.335938 140.75 42.359375 140.75 42.386719 140.75 C 47.019531 140.285156 50.414062 133.378906 49.972656 125.3125 C 49.535156 117.246094 45.417969 111.082031 40.789062 111.539062 C 39.4375 111.675781 38.1875 112.363281 37.113281 113.464844 C 38.097656 112.566406 39.214844 112.003906 40.414062 111.886719 C 45 111.429688 49.070312 117.535156 49.511719 125.515625 C 49.933594 133.320312 46.734375 140.027344 42.308594 140.753906 Z M 34.78125 174.894531 C 34.785156 174.898438 34.792969 174.902344 34.800781 174.902344 C 34.78125 174.898438 34.757812 174.890625 34.734375 174.886719 C 34.75 174.890625 34.765625 174.890625 34.78125 174.894531 Z M 16.457031 186.222656 L 30.691406 180.910156 C 30.691406 181.054688 30.691406 181.199219 30.703125 181.347656 C 30.710938 181.59375 30.738281 181.835938 30.765625 182.070312 Z M 18.945312 192.796875 C 16.703125 193.019531 14.648438 190.78125 14.351562 187.796875 C 14.316406 187.410156 14.308594 187.03125 14.332031 186.664062 C 13.617188 186.398438 11.914062 185.855469 10.273438 185.957031 C 11.054688 185.429688 13.574219 185.347656 14.546875 185.335938 C 14.5625 185.273438 14.578125 185.210938 14.597656 185.152344 C 13.976562 184.875 12.460938 184.371094 9.5625 184.425781 C 10.992188 183.761719 14.125 183.722656 15.25 183.734375 C 15.273438 183.691406 15.304688 183.648438 15.332031 183.609375 C 14.5625 183.320312 12.519531 182.652344 10.199219 182.757812 C 12.808594 181.921875 15.246094 182.488281 16.117188 182.75 C 16.625 182.328125 17.21875 182.058594 17.875 181.996094 C 18.265625 181.957031 18.652344 182.003906 19.023438 182.105469 C 18.65625 182.238281 18.429688 182.320312 18.398438 182.324219 C 16.40625 182.816406 15.050781 184.820312 15.3125 187.519531 C 15.585938 190.390625 17.519531 192.34375 19.78125 192.589844 C 19.515625 192.695312 19.238281 192.769531 18.945312 192.796875 Z M 30.757812 179.636719 C 30.710938 180.019531 30.6875 180.410156 30.6875 180.816406 L 15.898438 185.335938 Z M 35.667969 172.652344 C 35.320312 172.667969 35.066406 172.679688 34.941406 172.691406 C 32.789062 172.90625 31.207031 175.441406 30.894531 178.765625 C 30.835938 179.027344 30.796875 179.296875 30.761719 179.570312 L 16.730469 184.21875 L 30.839844 178.722656 C 30.871094 178.394531 30.914062 178.066406 30.972656 177.753906 C 27.195312 179.121094 21.871094 181.074219 19.550781 181.914062 C 17.792969 180.832031 15.527344 180.386719 13.289062 180.609375 C 8.863281 181.050781 6.324219 184.675781 6.785156 189.308594 C 7.238281 193.933594 11.019531 197.558594 15.449219 197.121094 C 18.128906 196.855469 20.402344 194.867188 21.675781 192.3125 C 24.015625 191.585938 30.375 189.53125 34.207031 188.296875 C 34.375 188.417969 34.546875 188.53125 34.71875 188.621094 C 34.566406 188.519531 34.414062 188.402344 34.265625 188.277344 C 34.277344 188.277344 34.285156 188.273438 34.292969 188.269531 C 34.1875 188.195312 34.089844 188.105469 33.988281 188.019531 C 33.546875 187.589844 33.132812 187.0625 32.765625 186.449219 C 32.945312 186.605469 33.128906 186.734375 33.320312 186.84375 C 32.722656 186.433594 32.195312 185.761719 31.789062 184.917969 C 31.492188 184.226562 31.257812 183.460938 31.089844 182.65625 C 31.023438 182.285156 30.972656 181.902344 30.953125 181.5 C 30.765625 178.101562 32.246094 175.1875 34.257812 174.988281 C 34.722656 174.941406 35.171875 175.046875 35.597656 175.273438 C 36.886719 176.136719 37.855469 178.167969 37.988281 180.628906 C 38.175781 184.023438 36.691406 186.941406 34.683594 187.140625 C 35.101562 187.097656 35.289062 187.121094 35.933594 187.054688 C 37.933594 186.855469 39.40625 183.960938 39.21875 180.582031 C 39.046875 177.417969 37.480469 174.953125 35.636719 174.820312 C 35.515625 174.8125 34.546875 174.773438 34.070312 174.832031 C 34.078125 174.832031 34.085938 174.832031 34.085938 174.832031 C 34.066406 174.832031 34.035156 174.835938 34.007812 174.835938 C 33.109375 174.925781 32.320312 175.558594 31.730469 176.535156 C 32.425781 174.46875 33.703125 173.050781 35.285156 172.890625 C 35.859375 172.835938 36.425781 172.960938 36.96875 173.21875 C 37.027344 173.25 37.09375 173.277344 37.152344 173.3125 C 38.898438 174.480469 40.285156 177.148438 40.605469 180.371094 C 41.054688 184.878906 39.238281 188.75 36.558594 189.015625 C 36.644531 189.007812 36.902344 188.996094 37.285156 188.980469 L 40.601562 222.476562 C 39.566406 224.570312 39.003906 227.34375 39.167969 230.332031 C 39.363281 233.902344 40.546875 236.964844 42.222656 238.816406 L 42.804688 244.707031 L 42.394531 239.003906 C 42.847656 239.46875 43.332031 239.851562 43.835938 240.128906 C 41.5625 238.574219 39.851562 234.960938 39.609375 230.601562 C 39.277344 224.539062 41.921875 219.339844 45.515625 218.980469 C 46.265625 218.910156 46.996094 219.0625 47.6875 219.394531 C 50.046875 220.847656 51.851562 224.609375 52.101562 229.171875 C 52.21875 231.292969 51.976562 233.296875 51.46875 235.03125 C 50.480469 238.203125 48.574219 240.429688 46.269531 240.660156 C 47.019531 240.585938 50.402344 240.5 51.550781 240.386719 C 55.117188 240.035156 57.75 234.9375 57.425781 228.910156 C 57.113281 223.261719 54.328125 218.941406 51.035156 218.707031 C 50.820312 218.691406 45.578125 218.695312 45.527344 218.695312 C 45.375 218.695312 45.222656 218.695312 45.066406 218.710938 C 43.53125 218.863281 42.171875 219.910156 41.140625 221.523438 L 38.800781 188.929688 C 41.410156 188.847656 45.398438 188.734375 45.988281 188.675781 C 48.65625 188.414062 50.457031 184.566406 50.011719 180.085938 C 49.597656 175.882812 47.355469 172.617188 44.882812 172.445312 C 44.769531 172.433594 40.558594 172.511719 37.628906 172.589844 L 37.484375 170.582031 L 92.589844 146.558594 L 35.328125 169.210938 Z M 80.175781 198.386719 C 80.140625 198.386719 80.101562 198.386719 80.070312 198.386719 C 80.113281 198.386719 80.160156 198.386719 80.203125 198.390625 C 80.203125 198.390625 80.183594 198.390625 80.175781 198.386719 Z M 74.945312 196.101562 C 74.96875 196.097656 74.988281 196.097656 75.015625 196.097656 C 79.339844 195.667969 82.515625 189.210938 82.105469 181.675781 C 81.691406 174.144531 77.851562 168.386719 73.523438 168.816406 C 72.257812 168.941406 71.09375 169.582031 70.089844 170.613281 C 71.015625 169.773438 72.054688 169.246094 73.175781 169.136719 C 77.460938 168.714844 81.261719 174.414062 81.667969 181.871094 C 82.066406 189.15625 79.074219 195.421875 74.945312 196.101562 Z M 85.96875 242.417969 C 85.953125 242.417969 85.933594 242.414062 85.917969 242.414062 C 85.859375 242.410156 85.804688 242.414062 85.746094 242.410156 C 85.820312 242.414062 85.894531 242.414062 85.96875 242.417969 Z M 79.445312 202.757812 C 79.398438 202.753906 79.035156 202.738281 78.851562 202.761719 L 78.859375 202.761719 C 78.851562 202.765625 78.84375 202.765625 78.828125 202.765625 C 78.066406 202.839844 77.507812 203.941406 77.582031 205.226562 C 77.632812 206.207031 78.039062 207.011719 78.570312 207.300781 C 78.089844 206.972656 77.722656 206.207031 77.675781 205.285156 C 77.605469 204 78.164062 202.898438 78.921875 202.820312 C 79.101562 202.804688 79.269531 202.84375 79.429688 202.929688 C 79.917969 203.253906 80.28125 204.023438 80.335938 204.953125 C 80.40625 206.238281 79.84375 207.339844 79.085938 207.414062 C 79.246094 207.398438 79.316406 207.410156 79.558594 207.382812 C 80.316406 207.308594 80.871094 206.210938 80.800781 204.9375 C 80.734375 203.738281 80.144531 202.808594 79.445312 202.757812 Z M 80.152344 198.492188 C 80.167969 198.492188 80.1875 198.496094 80.203125 198.5 C 80.210938 198.5 80.21875 198.503906 80.222656 198.507812 C 80.203125 198.5 80.179688 198.496094 80.152344 198.492188 Z M 81.117188 198.421875 C 80.984375 198.414062 79.949219 198.371094 79.445312 198.429688 C 79.453125 198.429688 79.464844 198.429688 79.46875 198.433594 C 79.441406 198.433594 79.410156 198.433594 79.382812 198.4375 C 77.230469 198.652344 75.65625 201.761719 75.851562 205.382812 C 76.003906 208.15625 77.152344 210.421875 78.644531 211.238281 C 77.285156 210.308594 76.261719 208.148438 76.121094 205.542969 C 75.917969 201.921875 77.5 198.8125 79.644531 198.597656 C 80.140625 198.550781 80.621094 198.664062 81.074219 198.902344 C 82.445312 199.824219 83.480469 201.992188 83.625 204.613281 C 83.820312 208.234375 82.246094 211.34375 80.097656 211.558594 C 80.542969 211.511719 80.746094 211.539062 81.433594 211.46875 C 83.5625 211.257812 85.132812 208.167969 84.9375 204.566406 C 84.75 201.1875 83.078125 198.5625 81.117188 198.421875 Z M 74.953125 167.992188 C 74.996094 167.996094 75.039062 168.007812 75.066406 168.015625 C 75.085938 168.019531 75.101562 168.027344 75.117188 168.03125 C 75.066406 168.015625 75.007812 168.003906 74.953125 167.992188 Z M 71.40625 172.835938 C 71.417969 172.839844 71.429688 172.84375 71.441406 172.847656 C 71.402344 172.839844 71.363281 172.832031 71.324219 172.820312 C 71.355469 172.828125 71.386719 172.832031 71.40625 172.835938 Z M 77.125 167.835938 C 76.835938 167.8125 74.503906 167.71875 73.355469 167.855469 C 73.371094 167.859375 73.398438 167.859375 73.417969 167.863281 C 73.347656 167.863281 73.277344 167.863281 73.210938 167.871094 C 69.941406 168.195312 67.257812 171.503906 66 176.128906 C 64.976562 178.109375 64.425781 180.769531 64.582031 183.632812 C 64.738281 186.527344 65.59375 189.066406 66.835938 190.824219 C 67.976562 193.601562 69.632812 195.722656 71.550781 196.777344 C 70.046875 195.75 68.730469 194.046875 67.738281 191.894531 C 68.125 192.273438 68.535156 192.585938 68.964844 192.820312 C 66.828125 191.363281 65.222656 187.972656 65 183.886719 C 64.6875 178.203125 67.164062 173.324219 70.535156 172.988281 C 71.308594 172.914062 72.0625 173.089844 72.769531 173.46875 C 74.925781 174.914062 76.546875 178.3125 76.773438 182.425781 C 77.082031 188.109375 74.605469 192.984375 71.242188 193.320312 C 71.941406 193.25 72.253906 193.285156 73.332031 193.179688 C 76.679688 192.847656 79.140625 188 78.832031 182.347656 C 78.542969 177.054688 75.917969 172.933594 72.835938 172.714844 C 72.632812 172.699219 71.011719 172.632812 70.214844 172.726562 C 70.230469 172.730469 70.242188 172.730469 70.257812 172.730469 C 70.210938 172.734375 70.164062 172.734375 70.113281 172.738281 C 69.117188 172.835938 68.199219 173.34375 67.410156 174.140625 C 68.84375 170.78125 71.128906 168.503906 73.8125 168.234375 C 74.921875 168.125 76 168.375 77.011719 168.914062 C 80.125 170.980469 82.46875 175.882812 82.792969 181.8125 C 83.238281 189.992188 79.675781 197.011719 74.832031 197.492188 C 75.839844 197.394531 76.292969 197.449219 77.839844 197.292969 C 82.660156 196.816406 86.203125 189.835938 85.757812 181.707031 C 85.339844 174.082031 81.570312 168.152344 77.125 167.835938 Z M 33.730469 183.253906 C 33.878906 183.242188 33.949219 183.246094 34.175781 183.226562 C 34.886719 183.15625 35.40625 182.128906 35.34375 180.929688 C 35.28125 179.808594 34.722656 178.9375 34.070312 178.890625 C 34.027344 178.886719 33.683594 178.871094 33.515625 178.890625 C 33.515625 178.890625 33.523438 178.890625 33.527344 178.890625 C 33.527344 178.890625 33.503906 178.890625 33.492188 178.890625 C 32.78125 178.960938 32.257812 179.996094 32.320312 181.203125 C 32.371094 182.125 32.753906 182.875 33.246094 183.148438 C 32.796875 182.839844 32.457031 182.121094 32.40625 181.257812 C 32.34375 180.050781 32.867188 179.019531 33.582031 178.949219 C 33.746094 178.933594 33.902344 178.964844 34.054688 179.046875 C 34.511719 179.355469 34.855469 180.074219 34.90625 180.945312 C 34.96875 182.148438 34.445312 183.183594 33.730469 183.253906 Z M 93.230469 296.777344 L 71.703125 297.660156 L 92.976562 294.855469 L 70.992188 296.0625 L 87.195312 293.34375 L 71.632812 294.117188 L 83.023438 291.949219 L 72.3125 292.402344 C 70.816406 293.648438 69.945312 295.863281 70.183594 298.285156 C 70.402344 300.511719 71.515625 302.382812 73.027344 303.390625 L 75.324219 298.609375 L 88.449219 297.445312 Z M 69.652344 186.816406 C 69.902344 186.792969 70.011719 186.808594 70.394531 186.769531 C 71.578125 186.652344 72.453125 184.933594 72.34375 182.933594 C 72.238281 181.054688 71.308594 179.59375 70.214844 179.515625 C 70.148438 179.507812 69.574219 179.488281 69.289062 179.519531 C 69.289062 179.519531 69.300781 179.519531 69.304688 179.523438 C 69.289062 179.523438 69.269531 179.519531 69.253906 179.523438 C 68.058594 179.640625 67.183594 181.371094 67.289062 183.382812 C 67.375 184.929688 68.015625 186.1875 68.84375 186.644531 C 68.085938 186.125 67.515625 184.921875 67.4375 183.476562 C 67.328125 181.460938 68.207031 179.730469 69.402344 179.613281 C 69.675781 179.585938 69.945312 179.648438 70.195312 179.785156 C 70.960938 180.296875 71.53125 181.5 71.613281 182.957031 C 71.722656 184.96875 70.84375 186.703125 69.652344 186.816406 Z M 71.40625 172.664062 C 71.390625 172.664062 71.371094 172.660156 71.359375 172.65625 C 71.304688 172.65625 71.25 172.65625 71.195312 172.65625 C 71.265625 172.65625 71.335938 172.65625 71.40625 172.664062 Z M 56.808594 218.605469 L 52.46875 174.796875 L 85.082031 161.894531 L 89.996094 211.484375 Z M 51.699219 173.890625 L 56.4375 221.734375 L 93.453125 214.714844 L 87.988281 159.535156 Z M 34.78125 174.792969 C 34.78125 174.792969 34.761719 174.792969 34.753906 174.789062 C 34.722656 174.789062 34.6875 174.789062 34.65625 174.789062 C 34.699219 174.789062 34.742188 174.789062 34.78125 174.792969 Z M 62.683594 204.835938 C 62.550781 202.410156 61.28125 200.558594 59.84375 200.703125 C 58.40625 200.84375 57.355469 202.925781 57.488281 205.355469 C 57.621094 207.777344 58.890625 209.632812 60.324219 209.488281 C 61.761719 209.347656 62.816406 207.261719 62.683594 204.835938 Z M 75.773438 167.410156 C 75.699219 167.40625 75.617188 167.40625 75.539062 167.40625 C 75.640625 167.410156 75.742188 167.410156 75.847656 167.414062 C 75.820312 167.414062 75.792969 167.410156 75.773438 167.410156 Z M 95.910156 286.167969 C 88.484375 286.90625 81.757812 287.722656 76.773438 288.464844 C 76.847656 287.660156 85.308594 286.183594 95.808594 285.140625 C 106.3125 284.101562 114.902344 283.886719 115.128906 284.660156 C 110.097656 284.914062 103.335938 285.433594 95.910156 286.167969 Z M 101.085938 300.28125 C 99.253906 300.464844 97.585938 298.875 97.210938 296.679688 C 97.550781 298.566406 98.996094 299.921875 100.574219 299.761719 C 102.257812 299.597656 103.457031 297.773438 103.25 295.691406 C 103.042969 293.605469 101.511719 292.050781 99.824219 292.21875 C 98.25 292.375 97.097656 293.988281 97.128906 295.902344 C 97.070312 293.675781 98.394531 291.789062 100.226562 291.609375 C 102.160156 291.417969 103.921875 293.203125 104.15625 295.597656 C 104.394531 297.996094 103.019531 300.089844 101.085938 300.28125 Z M 81.867188 278.980469 L 78.976562 284.976562 C 78.664062 285.027344 78.363281 285.078125 78.078125 285.128906 Z M 80.304688 284.765625 C 79.863281 284.832031 79.449219 284.898438 79.050781 284.964844 L 82.957031 278.617188 Z M 81.917969 284.519531 C 81.402344 284.59375 80.90625 284.671875 80.429688 284.742188 L 84.300781 278.226562 Z M 83.800781 284.253906 C 83.199219 284.332031 82.621094 284.417969 82.070312 284.496094 L 85.574219 278.152344 Z M 85.652344 284 C 85.070312 284.078125 84.503906 284.15625 83.957031 284.230469 L 86.835938 277.976562 Z M 87.792969 283.726562 C 87.128906 283.808594 86.488281 283.890625 85.863281 283.972656 L 88.160156 277.949219 Z M 89.792969 283.476562 C 89.199219 283.546875 88.632812 283.621094 88.070312 283.691406 L 89.570312 277.707031 Z M 91.167969 277.566406 L 91.90625 283.222656 C 91.3125 283.292969 90.734375 283.363281 90.160156 283.429688 Z M 93.328125 277.386719 L 94.234375 282.953125 C 93.597656 283.023438 92.96875 283.09375 92.351562 283.167969 Z M 95.476562 277.097656 L 96.507812 282.695312 C 95.886719 282.765625 95.277344 282.835938 94.675781 282.902344 Z M 97.859375 276.898438 L 99.089844 282.417969 C 98.382812 282.492188 97.691406 282.566406 97 282.644531 Z M 100.179688 276.722656 L 101.777344 282.136719 C 101.035156 282.210938 100.300781 282.289062 99.578125 282.363281 Z M 93.292969 303.03125 C 95.308594 302.902344 97.050781 302.785156 98.203125 302.703125 C 97.046875 302.785156 95.304688 302.902344 93.292969 303.03125 Z M 85.617188 242.617188 C 85.628906 242.621094 85.644531 242.628906 85.65625 242.628906 C 85.617188 242.617188 85.578125 242.609375 85.535156 242.601562 C 85.566406 242.609375 85.59375 242.609375 85.617188 242.617188 Z M 76.605469 248.152344 C 76.609375 248.152344 76.617188 248.15625 76.625 248.160156 C 76.601562 248.152344 76.578125 248.148438 76.558594 248.140625 C 76.570312 248.148438 76.59375 248.148438 76.605469 248.152344 Z M 73.253906 257.246094 C 73.25 257.242188 73.25 257.238281 73.25 257.238281 L 73.234375 257.25 C 73.167969 257.050781 73.109375 256.839844 73.058594 256.628906 L 73.066406 256.621094 C 73.066406 256.617188 73.0625 256.609375 73.0625 256.601562 L 73.050781 256.609375 C 72.96875 256.28125 72.90625 255.945312 72.855469 255.59375 C 72.957031 256.167969 73.085938 256.722656 73.253906 257.246094 Z M 73.378906 257.621094 C 73.332031 257.503906 73.28125 257.390625 73.238281 257.269531 L 73.257812 257.257812 C 73.296875 257.378906 73.332031 257.503906 73.378906 257.621094 Z M 48.621094 274.050781 L 73.085938 257.375 C 73.167969 257.601562 73.257812 257.816406 73.355469 258.023438 Z M 51.105469 277.621094 C 49.992188 278.378906 48.265625 277.792969 47.253906 276.304688 C 46.242188 274.816406 46.328125 272.996094 47.445312 272.238281 C 47.746094 272.03125 48.097656 271.933594 48.457031 271.917969 C 48.109375 272.152344 47.902344 272.289062 47.886719 272.300781 C 46.855469 273.003906 46.773438 274.695312 47.710938 276.070312 C 48.652344 277.449219 50.25 277.996094 51.28125 277.289062 C 51.28125 277.289062 51.410156 277.207031 51.617188 277.070312 C 51.484375 277.28125 51.320312 277.476562 51.105469 277.621094 Z M 72.886719 256.746094 C 72.945312 256.953125 73.003906 257.160156 73.074219 257.351562 L 48.730469 273.332031 Z M 72.769531 256.324219 C 72.804688 256.460938 72.839844 256.589844 72.875 256.722656 L 48.957031 272.601562 Z M 29.929688 284.566406 L 45.019531 275.097656 C 45.074219 275.402344 45.160156 275.710938 45.277344 276.019531 Z M 44.9375 274.046875 C 44.921875 274.378906 44.949219 274.722656 45.015625 275.070312 L 30.492188 283.210938 Z M 139.996094 290.976562 C 139.675781 287.761719 137.34375 285.289062 134.519531 284.902344 L 134.054688 280.214844 L 134.027344 280.21875 C 134.039062 280.203125 134.050781 280.183594 134.050781 280.171875 C 134.035156 280.007812 133.222656 279.929688 131.777344 279.925781 C 130.910156 278.808594 126.789062 274.003906 126.777344 273.882812 C 126.75 273.640625 119.929688 273.425781 110.609375 274.019531 L 109.753906 265.121094 C 110.152344 265.082031 110.433594 265.050781 110.574219 265.039062 C 115.25 264.574219 118.46875 258.378906 117.691406 250.511719 C 117.148438 245.082031 114.882812 240.675781 111.988281 238.609375 L 139.554688 233.332031 L 101.394531 235.449219 L 42.988281 246.527344 L 80.410156 244.082031 C 80.191406 244.605469 79.992188 245.160156 79.824219 245.742188 C 78.4375 245.828125 77.164062 245.910156 76.765625 245.949219 C 74.59375 246.164062 73 248.730469 72.699219 252.089844 C 72.542969 252.871094 72.476562 253.722656 72.523438 254.605469 C 72.546875 255.027344 72.605469 255.429688 72.671875 255.824219 C 66.492188 259.886719 53.289062 268.695312 49.152344 271.453125 C 48.109375 271.015625 47.015625 271.027344 46.175781 271.601562 C 45.613281 271.980469 45.246094 272.554688 45.0625 273.226562 C 41.480469 275.167969 30.503906 281.5 30.25 281.671875 C 28.46875 282.882812 28.335938 285.78125 29.945312 288.144531 C 31.289062 290.109375 33.410156 291.085938 35.109375 290.664062 C 35.578125 290.578125 36.089844 290.398438 36.621094 290.074219 C 36.835938 289.941406 37.027344 289.792969 37.199219 289.636719 C 37.441406 289.410156 46.339844 281.96875 49.386719 279.484375 C 50.054688 279.546875 50.695312 279.414062 51.234375 279.042969 C 52.03125 278.503906 52.4375 277.570312 52.464844 276.511719 C 56.667969 273.746094 70.976562 264.339844 75.679688 261.273438 C 75.957031 261.515625 76.242188 261.722656 76.542969 261.878906 C 75.804688 261.390625 75.132812 260.640625 74.574219 259.6875 C 74.757812 259.847656 74.945312 259.988281 75.144531 260.097656 C 74.890625 259.925781 74.660156 259.699219 74.4375 259.445312 C 73.734375 258.167969 73.234375 256.5625 73.0625 254.792969 C 72.945312 253.617188 72.984375 252.488281 73.148438 251.453125 C 73.699219 249.648438 74.777344 248.375 76.082031 248.242188 C 76.542969 248.195312 76.996094 248.300781 77.417969 248.527344 C 78.707031 249.394531 79.679688 251.421875 79.8125 253.882812 C 80 257.28125 78.515625 260.195312 76.507812 260.394531 C 76.925781 260.355469 77.113281 260.375 77.757812 260.308594 C 79.757812 260.113281 81.226562 257.214844 81.042969 253.839844 C 80.871094 250.671875 79.304688 248.207031 77.460938 248.078125 C 77.335938 248.066406 76.367188 248.03125 75.890625 248.085938 C 75.898438 248.089844 75.910156 248.089844 75.910156 248.089844 C 75.886719 248.089844 75.863281 248.089844 75.832031 248.09375 C 74.933594 248.179688 74.140625 248.8125 73.554688 249.789062 C 74.246094 247.726562 75.523438 246.304688 77.105469 246.148438 C 77.726562 246.085938 78.335938 246.226562 78.914062 246.527344 C 80.6875 247.671875 82.105469 250.367188 82.429688 253.628906 C 82.875 258.136719 81.0625 262.003906 78.382812 262.273438 C 78.648438 262.246094 80.050781 262.140625 81.546875 262.027344 C 82.71875 264.175781 84.210938 265.816406 85.855469 266.691406 C 84.488281 265.789062 83.246094 264.347656 82.234375 262.535156 C 82.710938 263.003906 83.214844 263.386719 83.742188 263.652344 C 83.105469 263.25 82.515625 262.6875 81.976562 261.992188 C 83.503906 261.878906 85.027344 261.761719 85.441406 261.722656 C 88.105469 261.457031 89.90625 257.609375 89.460938 253.132812 C 89.046875 248.925781 86.804688 245.664062 84.332031 245.488281 C 84.25 245.480469 82.664062 245.570312 80.953125 245.671875 C 81.910156 244.066406 83.210938 243.007812 84.707031 242.808594 C 85.519531 242.703125 86.320312 242.859375 87.074219 243.230469 C 89.382812 244.671875 91.199219 248.179688 91.574219 252.484375 C 92.09375 258.429688 89.667969 263.632812 86.148438 264.097656 C 86.878906 264 87.214844 264.027344 88.335938 263.878906 C 91.835938 263.417969 94.246094 258.25 93.734375 252.335938 C 93.246094 246.792969 90.355469 242.5625 87.113281 242.4375 C 86.898438 242.429688 85.199219 242.414062 84.367188 242.542969 C 84.378906 242.546875 84.394531 242.542969 84.410156 242.542969 C 84.359375 242.546875 84.308594 242.546875 84.261719 242.554688 C 82.898438 242.738281 81.707031 243.632812 80.777344 245 C 82.023438 241.636719 84.191406 239.347656 86.851562 239.085938 C 87.933594 238.980469 89.007812 239.222656 90.023438 239.75 C 93.136719 241.761719 95.625 246.488281 96.191406 252.210938 C 96.972656 260.121094 93.792969 266.914062 89.085938 267.378906 C 89.457031 267.34375 92.398438 267.023438 96 266.625 C 96.441406 266.191406 101.078125 261.796875 106.601562 261.308594 C 108.273438 261.25 109.519531 262.355469 109.589844 263.507812 L 109.636719 263.925781 C 109.566406 262.769531 108.398438 262.554688 106.730469 262.609375 C 100.917969 263.121094 95.953125 266.671875 95.953125 266.671875 L 96.789062 275.390625 C 87.539062 276.640625 80.890625 278.191406 80.914062 278.429688 C 80.921875 278.535156 78.65625 282.59375 77.605469 284.554688 L 81.121094 278.851562 L 78.011719 285.140625 C 77.777344 285.179688 77.550781 285.222656 77.335938 285.261719 L 77.230469 285.269531 C 77.230469 285.273438 77.226562 285.277344 77.222656 285.28125 C 75.457031 285.617188 74.472656 285.894531 74.492188 286.078125 C 74.496094 286.09375 74.511719 286.105469 74.527344 286.121094 L 74.496094 286.121094 L 75.015625 291.339844 C 74.890625 291.347656 74.792969 291.359375 74.722656 291.363281 C 73.941406 291.441406 73.222656 291.738281 72.59375 292.1875 L 81.042969 290.894531 L 81.015625 290.890625 C 87.632812 290.414062 97.128906 289.753906 98.28125 289.636719 C 95.390625 289.921875 93.335938 293.058594 93.6875 296.636719 C 94.042969 300.21875 96.675781 302.886719 99.566406 302.597656 C 99.363281 302.621094 98.917969 302.65625 98.289062 302.699219 C 96.042969 302.417969 95.234375 301.515625 95.234375 301.515625 L 92.332031 301.625 L 91.742188 300.625 L 94.246094 299.945312 L 91.480469 300.183594 L 90.828125 299.066406 L 93.621094 298.546875 L 90.585938 298.65625 L 89.804688 297.324219 L 88.738281 299.457031 L 88.242188 300.457031 L 88.035156 300.878906 L 87.574219 301.800781 L 87.253906 302.445312 L 82.675781 311.625 L 88.707031 311.625 L 91.101562 307.0625 L 90.792969 311.625 L 106.605469 311.625 L 107.855469 300.105469 L 117.035156 299.199219 C 117.835938 299.117188 118.316406 297.367188 118.113281 295.285156 C 118.042969 294.601562 117.910156 293.972656 117.730469 293.433594 C 117.957031 293.40625 118.175781 293.378906 118.402344 293.355469 C 118.359375 290.027344 120.496094 287.175781 123.484375 286.5625 C 123.683594 286.519531 123.886719 286.488281 124.085938 286.46875 C 124.296875 286.445312 124.503906 286.4375 124.710938 286.4375 C 124.777344 286.4375 124.847656 286.445312 124.917969 286.449219 C 125.050781 286.457031 125.1875 286.460938 125.316406 286.476562 C 125.402344 286.488281 125.484375 286.503906 125.570312 286.515625 C 125.683594 286.53125 125.796875 286.550781 125.910156 286.574219 C 126 286.59375 126.089844 286.617188 126.179688 286.640625 C 126.28125 286.667969 126.382812 286.695312 126.484375 286.730469 C 126.582031 286.761719 126.671875 286.792969 126.761719 286.828125 C 126.851562 286.863281 126.941406 286.898438 127.03125 286.9375 C 127.132812 286.980469 127.226562 287.023438 127.324219 287.070312 C 127.402344 287.109375 127.476562 287.148438 127.550781 287.191406 C 127.652344 287.246094 127.757812 287.304688 127.855469 287.367188 C 127.914062 287.402344 127.96875 287.445312 128.027344 287.480469 C 128.140625 287.554688 128.25 287.632812 128.359375 287.710938 C 128.382812 287.730469 128.40625 287.753906 128.433594 287.777344 C 129.3125 288.460938 130.03125 289.382812 130.507812 290.464844 C 130.507812 290.46875 130.507812 290.472656 130.511719 290.476562 C 130.59375 290.65625 130.664062 290.84375 130.730469 291.035156 C 130.734375 291.039062 130.734375 291.042969 130.738281 291.046875 C 130.800781 291.238281 130.859375 291.433594 130.910156 291.632812 C 131.003906 292 131.078125 292.371094 131.113281 292.761719 C 131.496094 296.582031 128.960938 299.960938 125.460938 300.3125 C 126.25 300.234375 127.792969 299.914062 129.433594 299.554688 C 129.308594 299.609375 129.230469 299.640625 129.230469 299.640625 L 141.707031 311.625 L 144.289062 311.625 L 130.640625 298.726562 C 131.554688 297.910156 132.640625 296.429688 133.035156 293.855469 C 133.035156 293.859375 133.042969 293.867188 133.050781 293.878906 C 133.058594 293.882812 133.066406 293.894531 133.074219 293.902344 C 133.082031 293.910156 133.09375 293.917969 133.101562 293.929688 C 133.113281 293.941406 133.128906 293.957031 133.144531 293.976562 C 133.160156 293.992188 133.175781 294.003906 133.191406 294.023438 C 133.214844 294.046875 133.242188 294.074219 133.265625 294.101562 C 133.277344 294.105469 133.277344 294.109375 133.28125 294.113281 C 133.359375 294.191406 133.453125 294.285156 133.5625 294.398438 C 133.578125 294.417969 133.601562 294.433594 133.617188 294.453125 C 133.664062 294.503906 133.714844 294.554688 133.769531 294.609375 C 133.769531 294.613281 133.777344 294.617188 133.78125 294.621094 C 135.851562 296.726562 142.085938 303.042969 150.5625 311.625 L 157.128906 311.625 L 139.761719 293.648438 C 139.996094 292.8125 140.085938 291.90625 139.996094 290.976562 Z M 61.9375 190.613281 C 61.910156 190.617188 61.878906 190.625 61.851562 190.625 C 61.859375 190.625 61.871094 190.628906 61.871094 190.628906 C 62.042969 190.613281 62.949219 190.570312 63.234375 190.558594 C 63.40625 190.554688 63.589844 190.488281 63.769531 190.324219 C 64.46875 189.710938 63.371094 188.125 63.371094 188.125 L 59.066406 181.652344 C 59.066406 181.652344 58.570312 180.863281 57.761719 180.953125 C 57.570312 180.976562 56.527344 181.011719 56.441406 181.019531 C 56.425781 181.019531 56.417969 181.019531 56.40625 181.019531 C 57.183594 180.960938 57.671875 181.722656 57.671875 181.722656 L 61.972656 188.195312 C 61.972656 188.195312 63.066406 189.78125 62.371094 190.394531 C 62.230469 190.523438 62.089844 190.585938 61.949219 190.613281 C 61.902344 190.605469 61.515625 190.597656 61.234375 190.320312 C 59.910156 188.964844 55.601562 183.789062 55.601562 183.789062 C 55.484375 183.558594 54.320312 182.570312 55.648438 181.378906 C 55.765625 181.277344 55.875 181.199219 55.984375 181.132812 C 55.8125 181.207031 55.632812 181.320312 55.441406 181.488281 C 54.105469 182.683594 55.179688 183.757812 55.292969 183.988281 L 60.753906 189.980469 C 60.753906 189.980469 61.304688 190.722656 61.9375 190.613281 Z M 127.65625 293.101562 C 127.425781 290.789062 125.519531 289.082031 123.398438 289.289062 C 121.277344 289.5 119.742188 291.546875 119.972656 293.863281 C 120.199219 296.183594 122.105469 297.890625 124.230469 297.679688 C 126.351562 297.46875 127.886719 295.421875 127.65625 293.101562 Z M 63.6875 194.339844 C 63.675781 194.339844 63.660156 194.339844 63.660156 194.339844 C 63.589844 194.332031 63.539062 194.335938 63.484375 194.335938 C 63.554688 194.335938 63.621094 194.335938 63.6875 194.339844 Z M 63.085938 194.734375 C 63.113281 194.738281 63.144531 194.746094 63.160156 194.746094 C 63.171875 194.75 63.183594 194.757812 63.199219 194.757812 C 63.15625 194.75 63.121094 194.742188 63.085938 194.734375 Z M 60.671875 198.027344 C 60.679688 198.027344 60.6875 198.03125 60.695312 198.035156 C 60.667969 198.027344 60.644531 198.023438 60.621094 198.015625 C 60.636719 198.019531 60.660156 198.023438 60.671875 198.027344 Z M 64.5625 194.625 C 64.367188 194.613281 62.78125 194.546875 62 194.640625 C 62.007812 194.640625 62.027344 194.640625 62.042969 194.640625 C 61.996094 194.644531 61.945312 194.644531 61.902344 194.652344 C 59.679688 194.871094 57.859375 197.117188 56.996094 200.261719 C 56.304688 201.605469 55.925781 203.414062 56.03125 205.367188 C 56.140625 207.339844 56.71875 209.066406 57.566406 210.261719 C 58.339844 212.152344 59.46875 213.59375 60.769531 214.308594 C 59.75 213.609375 58.855469 212.453125 58.179688 210.988281 C 58.445312 211.246094 58.71875 211.460938 59.011719 211.617188 C 57.558594 210.625 56.46875 208.320312 56.316406 205.542969 C 56.105469 201.675781 57.789062 198.359375 60.078125 198.132812 C 60.605469 198.078125 61.117188 198.199219 61.597656 198.457031 C 63.066406 199.4375 64.167969 201.75 64.320312 204.546875 C 64.53125 208.414062 62.851562 211.730469 60.558594 211.957031 C 61.035156 211.90625 61.25 211.933594 61.984375 211.859375 C 64.257812 211.636719 65.929688 208.339844 65.722656 204.496094 C 65.523438 200.894531 63.742188 198.09375 61.644531 197.945312 C 61.507812 197.933594 60.40625 197.886719 59.863281 197.953125 C 59.863281 197.953125 59.882812 197.953125 59.890625 197.957031 C 59.859375 197.957031 59.828125 197.957031 59.796875 197.957031 C 59.121094 198.027344 58.5 198.367188 57.964844 198.90625 C 58.9375 196.628906 60.484375 195.082031 62.308594 194.898438 C 63.066406 194.820312 63.804688 194.996094 64.5 195.363281 C 66.609375 196.777344 68.195312 200.105469 68.417969 204.132812 C 68.722656 209.695312 66.292969 214.46875 63.003906 214.792969 C 63.6875 214.726562 64 214.761719 65.050781 214.660156 C 68.328125 214.335938 70.734375 209.589844 70.429688 204.058594 C 70.148438 198.875 67.582031 194.84375 64.5625 194.625 Z M 60.671875 197.910156 C 60.660156 197.910156 60.652344 197.90625 60.640625 197.90625 C 60.601562 197.90625 60.566406 197.90625 60.53125 197.90625 C 60.578125 197.90625 60.625 197.90625 60.671875 197.910156 " fill-opacity="1" fill-rule="nonzero"/></g><g fill="#ffde59" fill-opacity="1"><g transform="translate(223.529291, 119.887591)"><g><path d="M 2.492188 -45.773438 L 9.21875 -45.773438 L 9.21875 0 L 2.492188 0 Z M 2.492188 -45.773438 "/></g></g></g><g fill="#ffde59" fill-opacity="1"><g transform="translate(235.234363, 119.887591)"><g/></g></g><g fill="#ffde59" fill-opacity="1"><g transform="translate(244.822557, 119.887591)"><g><path d="M 2.492188 -45.773438 L 9.21875 -45.773438 L 9.21875 -6.226562 L 18.125 -6.226562 L 18.125 0 L 2.492188 0 Z M 2.492188 -45.773438 "/></g></g></g><g fill="#ffde59" fill-opacity="1"><g transform="translate(263.189565, 119.887591)"><g><path d="M 2.492188 -45.773438 L 9.21875 -45.773438 L 9.21875 0 L 2.492188 0 Z M 2.492188 -45.773438 "/></g></g></g><g fill="#ffde59" fill-opacity="1"><g transform="translate(274.894637, 119.887591)"><g><path d="M 9.21875 -45.773438 L 9.21875 -29.769531 L 9.464844 -29.769531 L 9.777344 -30.515625 L 15.382812 -45.773438 L 21.921875 -45.773438 L 15.757812 -30.703125 L 22.730469 0 L 16.191406 0 L 11.523438 -19.929688 L 11.335938 -20.863281 L 11.148438 -20.863281 L 10.773438 -19.929688 L 9.21875 -16.191406 L 9.21875 0 L 2.492188 0 L 2.492188 -45.773438 Z M 9.21875 -45.773438 "/></g></g></g><g fill="#ffde59" fill-opacity="1"><g transform="translate(298.242534, 119.887591)"><g><path d="M 2.492188 -45.773438 L 17.875 -45.773438 L 17.875 -38.863281 L 9.21875 -38.863281 L 9.21875 -26.84375 L 15.445312 -26.84375 L 15.445312 -19.492188 L 9.21875 -19.492188 L 9.21875 -6.914062 L 17.875 -6.914062 L 17.875 0 L 2.492188 0 Z M 2.492188 -45.773438 "/></g></g></g><g fill="#ffde59" fill-opacity="1"><g transform="translate(317.356673, 119.887591)"><g/></g></g><g fill="#ffde59" fill-opacity="1"><g transform="translate(326.944867, 119.887591)"><g><path d="M 0.125 -38.863281 L 0.125 -45.773438 L 19.554688 -45.773438 L 19.554688 -38.863281 L 13.203125 -38.863281 L 13.203125 0 L 6.476562 0 L 6.476562 -38.863281 Z M 0.125 -38.863281 "/></g></g></g><g fill="#ffde59" fill-opacity="1"><g transform="translate(346.619355, 119.887591)"><g><path d="M 19.992188 -9.402344 C 19.929688 -7.535156 19.554688 -5.855469 18.871094 -4.421875 C 18.308594 -3.175781 17.4375 -1.992188 16.191406 -1.058594 C 14.945312 -0.0625 13.265625 0.5 11.023438 0.5 C 8.78125 0.5 7.039062 -0.0625 5.792969 -1.058594 C 4.546875 -1.992188 3.738281 -3.175781 3.175781 -4.421875 C 2.492188 -5.855469 2.117188 -7.535156 2.054688 -9.402344 L 2.054688 -36.371094 C 2.117188 -38.175781 2.492188 -39.859375 3.175781 -41.292969 C 3.738281 -42.535156 4.546875 -43.78125 5.792969 -44.714844 C 7.039062 -45.652344 8.78125 -46.273438 11.023438 -46.273438 C 13.265625 -46.273438 14.945312 -45.652344 16.191406 -44.714844 C 17.4375 -43.78125 18.308594 -42.535156 18.871094 -41.292969 C 19.554688 -39.859375 19.929688 -38.175781 19.992188 -36.371094 Z M 13.265625 -36.371094 C 13.265625 -37.617188 13.015625 -38.488281 12.394531 -39.234375 C 12.082031 -39.546875 11.582031 -39.734375 11.023438 -39.734375 C 9.839844 -39.734375 9.28125 -38.863281 9.03125 -38.050781 C 8.84375 -37.554688 8.78125 -36.992188 8.78125 -36.371094 L 8.78125 -9.402344 C 8.78125 -8.097656 9.09375 -7.222656 9.714844 -6.539062 C 10.027344 -6.226562 10.464844 -6.042969 11.023438 -6.042969 C 12.207031 -6.042969 12.765625 -6.789062 13.015625 -7.722656 C 13.203125 -8.160156 13.265625 -8.71875 13.265625 -9.402344 Z M 13.265625 -36.371094 "/></g></g></g><g fill="#ffde59" fill-opacity="1"><g transform="translate(263.871613, 207.088617)"><g><path d="M 13.640625 0 L 9.34375 -28.773438 L 9.09375 -30.703125 L 8.71875 -30.703125 L 8.71875 0 L 2.492188 0 L 2.492188 -45.773438 L 10.710938 -45.773438 L 14.699219 -24.847656 L 15.007812 -22.421875 L 15.132812 -22.421875 L 15.445312 -24.847656 L 19.429688 -45.773438 L 27.652344 -45.773438 L 27.652344 0 L 21.425781 0 L 21.425781 -30.703125 L 21.050781 -30.703125 L 20.800781 -28.773438 L 16.503906 0 Z M 13.640625 0 "/></g></g></g><g fill="#ffde59" fill-opacity="1"><g transform="translate(294.005962, 207.088617)"><g><path d="M 19.992188 -9.402344 C 19.929688 -7.535156 19.554688 -5.855469 18.871094 -4.421875 C 18.308594 -3.175781 17.4375 -1.992188 16.191406 -1.058594 C 14.945312 -0.0625 13.265625 0.5 11.023438 0.5 C 8.78125 0.5 7.039062 -0.0625 5.792969 -1.058594 C 4.546875 -1.992188 3.738281 -3.175781 3.175781 -4.421875 C 2.492188 -5.855469 2.117188 -7.535156 2.054688 -9.402344 L 2.054688 -36.371094 C 2.117188 -38.175781 2.492188 -39.859375 3.175781 -41.292969 C 3.738281 -42.535156 4.546875 -43.78125 5.792969 -44.714844 C 7.039062 -45.652344 8.78125 -46.273438 11.023438 -46.273438 C 13.265625 -46.273438 14.945312 -45.652344 16.191406 -44.714844 C 17.4375 -43.78125 18.308594 -42.535156 18.871094 -41.292969 C 19.554688 -39.859375 19.929688 -38.175781 19.992188 -36.371094 Z M 13.265625 -36.371094 C 13.265625 -37.617188 13.015625 -38.488281 12.394531 -39.234375 C 12.082031 -39.546875 11.582031 -39.734375 11.023438 -39.734375 C 9.839844 -39.734375 9.28125 -38.863281 9.03125 -38.050781 C 8.84375 -37.554688 8.78125 -36.992188 8.78125 -36.371094 L 8.78125 -9.402344 C 8.78125 -8.097656 9.09375 -7.222656 9.714844 -6.539062 C 10.027344 -6.226562 10.464844 -6.042969 11.023438 -6.042969 C 12.207031 -6.042969 12.765625 -6.789062 13.015625 -7.722656 C 13.203125 -8.160156 13.265625 -8.71875 13.265625 -9.402344 Z M 13.265625 -36.371094 "/></g></g></g><g fill="#ffde59" fill-opacity="1"><g transform="translate(316.046379, 207.088617)"><g><path d="M 14.699219 -45.773438 L 21.238281 -45.773438 L 14.261719 0 L 7.535156 0 L 0.558594 -45.773438 L 7.101562 -45.773438 L 10.464844 -20.613281 L 10.710938 -18.683594 L 11.085938 -18.683594 L 11.335938 -20.613281 Z M 14.699219 -45.773438 "/></g></g></g><g fill="#ffde59" fill-opacity="1"><g transform="translate(337.837746, 207.088617)"><g><path d="M 2.492188 -45.773438 L 9.21875 -45.773438 L 9.21875 0 L 2.492188 0 Z M 2.492188 -45.773438 "/></g></g></g><g fill="#ffde59" fill-opacity="1"><g transform="translate(349.542818, 207.088617)"><g><path d="M 2.492188 -45.773438 L 17.875 -45.773438 L 17.875 -38.863281 L 9.21875 -38.863281 L 9.21875 -26.84375 L 15.445312 -26.84375 L 15.445312 -19.492188 L 9.21875 -19.492188 L 9.21875 -6.914062 L 17.875 -6.914062 L 17.875 0 L 2.492188 0 Z M 2.492188 -45.773438 "/></g></g></g><g fill="#ffde59" fill-opacity="1"><g transform="translate(263.871613, 294.289643)"><g><path d="M 13.640625 0 L 9.34375 -28.773438 L 9.09375 -30.703125 L 8.71875 -30.703125 L 8.71875 0 L 2.492188 0 L 2.492188 -45.773438 L 10.710938 -45.773438 L 14.699219 -24.847656 L 15.007812 -22.421875 L 15.132812 -22.421875 L 15.445312 -24.847656 L 19.429688 -45.773438 L 27.652344 -45.773438 L 27.652344 0 L 21.425781 0 L 21.425781 -30.703125 L 21.050781 -30.703125 L 20.800781 -28.773438 L 16.503906 0 Z M 13.640625 0 "/></g></g></g><g fill="#ffde59" fill-opacity="1"><g transform="translate(294.005962, 294.289643)"><g><path d="M 19.992188 -9.402344 C 19.929688 -7.535156 19.554688 -5.855469 18.871094 -4.421875 C 18.308594 -3.175781 17.4375 -1.992188 16.191406 -1.058594 C 14.945312 -0.0625 13.265625 0.5 11.023438 0.5 C 8.78125 0.5 7.039062 -0.0625 5.792969 -1.058594 C 4.546875 -1.992188 3.738281 -3.175781 3.175781 -4.421875 C 2.492188 -5.855469 2.117188 -7.535156 2.054688 -9.402344 L 2.054688 -36.371094 C 2.117188 -38.175781 2.492188 -39.859375 3.175781 -41.292969 C 3.738281 -42.535156 4.546875 -43.78125 5.792969 -44.714844 C 7.039062 -45.652344 8.78125 -46.273438 11.023438 -46.273438 C 13.265625 -46.273438 14.945312 -45.652344 16.191406 -44.714844 C 17.4375 -43.78125 18.308594 -42.535156 18.871094 -41.292969 C 19.554688 -39.859375 19.929688 -38.175781 19.992188 -36.371094 Z M 13.265625 -36.371094 C 13.265625 -37.617188 13.015625 -38.488281 12.394531 -39.234375 C 12.082031 -39.546875 11.582031 -39.734375 11.023438 -39.734375 C 9.839844 -39.734375 9.28125 -38.863281 9.03125 -38.050781 C 8.84375 -37.554688 8.78125 -36.992188 8.78125 -36.371094 L 8.78125 -9.402344 C 8.78125 -8.097656 9.09375 -7.222656 9.714844 -6.539062 C 10.027344 -6.226562 10.464844 -6.042969 11.023438 -6.042969 C 12.207031 -6.042969 12.765625 -6.789062 13.015625 -7.722656 C 13.203125 -8.160156 13.265625 -8.71875 13.265625 -9.402344 Z M 13.265625 -36.371094 "/></g></g></g><g fill="#ffde59" fill-opacity="1"><g transform="translate(316.046379, 294.289643)"><g><path d="M 14.699219 -45.773438 L 21.238281 -45.773438 L 14.261719 0 L 7.535156 0 L 0.558594 -45.773438 L 7.101562 -45.773438 L 10.464844 -20.613281 L 10.710938 -18.683594 L 11.085938 -18.683594 L 11.335938 -20.613281 Z M 14.699219 -45.773438 "/></g></g></g><g fill="#ffde59" fill-opacity="1"><g transform="translate(337.837746, 294.289643)"><g><path d="M 2.492188 -45.773438 L 9.21875 -45.773438 L 9.21875 0 L 2.492188 0 Z M 2.492188 -45.773438 "/></g></g></g><g fill="#ffde59" fill-opacity="1"><g transform="translate(349.542818, 294.289643)"><g><path d="M 2.492188 -45.773438 L 17.875 -45.773438 L 17.875 -38.863281 L 9.21875 -38.863281 L 9.21875 -26.84375 L 15.445312 -26.84375 L 15.445312 -19.492188 L 9.21875 -19.492188 L 9.21875 -6.914062 L 17.875 -6.914062 L 17.875 0 L 2.492188 0 Z M 2.492188 -45.773438 "/></g></g></g></svg>